<svg width="2537" height="1230" viewBox="0 0 2537 1230" fill="none" xmlns="http://www.w3.org/2000/svg">
<rect width="2536.97" height="1229.26" fill="#F6F6F6"/>
<rect width="2536.97" height="1229.26" fill="#F6F6F6"/>
<rect width="2536.97" height="1229.26" fill="#F6F6F6"/>
<path d="M628.244 311.592H333.652V606.181H628.244V311.592Z" fill="#E1E1E1"/>
<path d="M1264.49 623.059H969.895V917.648H1264.49V623.059Z" fill="#E1E1E1"/>
<path d="M2210.85 1081.88C2210.85 1000.53 2144.9 934.582 2063.55 934.582V934.582C1982.2 934.582 1916.26 1000.53 1916.26 1081.88V1081.88C1916.26 1163.23 1982.2 1229.17 2063.55 1229.17V1229.17C2144.9 1229.17 2210.85 1163.23 2210.85 1081.88V1081.88Z" fill="#E1E1E1"/>
<path d="M946.365 934.584H651.773V1229.17H946.365V934.584Z" fill="#E1E1E1"/>
<path d="M2536.97 623.184H2242.38V917.773H2536.97V623.184Z" fill="#E1E1E1"/>
<path d="M946.365 0H651.773V294.589H946.365V0Z" fill="#E1E1E1"/>
<path d="M1900.73 0H1606.14V294.589H1900.73V0Z" fill="#E1E1E1"/>
<path d="M701.193 311.589L636.242 458.855L701.193 606.118H896.943L961.894 458.855L896.943 311.589H701.193Z" fill="#E1E1E1"/>
<path d="M1965.68 311.589L1900.73 458.855L1965.68 606.118H2161.43L2226.38 458.855L2161.43 311.589H1965.68Z" fill="#E1E1E1"/>
<path d="M1337.43 623.118L1272.48 770.385L1337.43 917.647H1533.19L1598.14 770.385L1533.19 623.118H1337.43Z" fill="#E1E1E1"/>
<path d="M64.9504 934.735L0 1082L64.9504 1229.26H260.701L325.652 1082L260.701 934.735H64.9504Z" fill="#E1E1E1"/>
<path d="M628.244 770.476C628.244 689.131 562.301 623.181 480.948 623.181C399.602 623.181 333.652 689.131 333.652 770.476C333.652 851.83 399.602 917.772 480.948 917.772C562.301 917.772 628.244 851.83 628.244 770.476Z" fill="#E1E1E1"/>
<path d="M1582.61 147.296C1582.61 65.95 1516.66 0 1435.31 0C1353.97 0 1288.02 65.95 1288.02 147.296C1288.02 228.649 1353.97 294.591 1435.31 294.591C1516.66 294.591 1582.61 228.649 1582.61 147.296Z" fill="#E1E1E1"/>
<path d="M2536.97 147.296C2536.97 65.95 2471.02 0 2389.67 0C2308.33 0 2242.38 65.95 2242.38 147.296C2242.38 228.649 2308.33 294.591 2389.67 294.591C2471.02 294.591 2536.97 228.649 2536.97 147.296Z" fill="#E1E1E1"/>
<path d="M310.123 147.296C310.123 65.95 244.18 0 162.827 0C81.4814 0 15.5312 65.95 15.5312 147.296C15.5312 228.649 81.4814 294.591 162.827 294.591C244.18 294.591 310.123 228.649 310.123 147.296Z" fill="#E1E1E1"/>
<path d="M1264.49 1081.88C1264.49 1000.53 1198.54 934.582 1117.19 934.582C1035.84 934.582 969.895 1000.53 969.895 1081.88C969.895 1163.23 1035.84 1229.17 1117.19 1229.17C1198.54 1229.17 1264.49 1163.23 1264.49 1081.88Z" fill="#E1E1E1"/>
<path d="M1900.73 770.476C1900.73 689.131 1834.79 623.181 1753.43 623.181C1672.09 623.181 1606.14 689.131 1606.14 770.476C1606.14 851.83 1672.09 917.772 1753.43 917.772C1834.79 917.772 1900.73 851.83 1900.73 770.476Z" fill="#E1E1E1"/>
<path d="M1582.61 458.822C1582.61 377.476 1516.66 311.526 1435.31 311.526C1353.97 311.526 1288.02 377.476 1288.02 458.822C1288.02 540.175 1353.97 606.118 1435.31 606.118C1516.66 606.118 1582.61 540.175 1582.61 458.822Z" fill="#E1E1E1"/>
<rect x="422.273" y="400.611" width="117.344" height="117.344" rx="58.6719" fill="#F6F6F6"/>
<rect x="1694.76" y="88.624" width="117.344" height="117.344" rx="58.6719" fill="#F6F6F6"/>
<rect x="1058.52" y="711.805" width="117.344" height="117.344" fill="#F6F6F6"/>
<rect x="2004.88" y="1023.33" width="117.344" height="117.344" fill="#F6F6F6"/>
<path d="M1396.64 400.611L1370.98 458.792L1396.64 516.97H1473.98L1499.64 458.792L1473.98 400.611H1396.64Z" fill="#F6F6F6"/>
<path d="M442.281 712.297L416.621 770.477L442.281 828.656H519.616L545.276 770.477L519.616 712.297H442.281Z" fill="#F6F6F6"/>
<path d="M1400.69 1089.99C1400.69 1085.63 1399.41 1081.91 1396.84 1078.84C1394.28 1075.5 1390.94 1073.83 1386.84 1073.83C1382.22 1073.83 1378.12 1076.01 1374.53 1080.37L1328.37 1134.61L1281.82 1088.07L1435.31 934.584L1588.79 1088.07L1542.63 1134.23L1496.47 1080.37C1493.14 1076.27 1489.16 1074.22 1484.55 1074.22C1480.44 1074.22 1477.11 1075.76 1474.54 1078.84C1471.72 1081.66 1470.31 1085.25 1470.31 1089.61L1470.31 1229.18L1400.69 1229.18L1400.69 1089.99Z" fill="#E1E1E1"/>
<path d="M197.445 466.902C197.445 462.542 198.728 458.824 201.292 455.746C203.857 452.413 207.19 450.746 211.294 450.746C215.91 450.746 220.013 452.926 223.603 457.285L269.763 511.524L316.309 464.979L162.825 311.495L9.34146 464.979L55.5019 511.139L101.662 457.285C104.996 453.182 108.971 451.13 113.587 451.13C117.69 451.13 121.024 452.669 123.589 455.746C126.41 458.567 127.82 462.158 127.82 466.517L127.82 606.087L197.445 606.087L197.445 466.902Z" fill="#E1E1E1"/>
</svg>
