<svg width="257" height="32" viewBox="0 0 257 32" fill="none" xmlns="http://www.w3.org/2000/svg">
<path d="M101.474 21.8467C103.061 21.8467 104.258 20.6168 104.258 18.9869C104.258 17.357 103.061 16.1271 101.474 16.1271C99.8867 16.1271 98.6891 17.357 98.6891 18.9869C98.6891 20.6168 99.8867 21.8467 101.474 21.8467ZM92.2534 18.9869L95.1275 10.3154H107.822L110.667 18.9869L107.822 27.6583H95.1275L92.2534 18.9869Z" fill="black"/>
<path d="M84.0496 19.4788C82.7021 19.4788 81.7149 18.4649 81.7149 17.081C81.7149 15.6971 82.7021 14.7131 84.0496 14.7131C85.3972 14.7131 86.3864 15.7271 86.3864 17.081C86.3864 18.4349 85.3991 19.4788 84.0496 19.4788ZM81.9232 10.3474C77.8204 10.3474 75.3668 13.2072 75.3668 17.021C75.3668 20.8348 77.8223 23.7246 81.9232 23.7246H84.9473C85.8158 23.7246 86.4136 24.3085 86.4136 25.1385V25.4805C86.4136 26.3104 85.8158 26.9264 84.9473 26.9264H75.9062V32.0001H91.5057V10.3494H81.9252L81.9232 10.3474Z" fill="black"/>
<path d="M41.5916 10.3174H34.5853V27.6623H41.5916V10.3174Z" fill="black"/>
<path d="M16.6803 5.97974H23.5385V12.9613C23.5385 13.8832 24.0779 14.4692 24.9464 14.4692C25.8149 14.4692 26.3543 13.8852 26.3543 12.9613V10.3175H33.2106V17.545H23.2386C22.3702 17.545 21.7704 18.129 21.7704 18.9589C21.7704 19.7889 22.3702 20.3728 23.2386 20.3728H33.2106V27.6624H26.3543V24.9566C26.3543 24.0346 25.8149 23.4486 24.9464 23.4486C24.0779 23.4486 23.5385 24.0326 23.5385 24.9566V27.6624H16.6803V5.98174V5.97974Z" fill="black"/>
<path d="M0 26.2004H9.34295C10.2114 26.2004 10.8092 25.6165 10.8092 24.7865C10.8092 23.9566 10.2114 23.3406 9.34295 23.3406L0 23.2786V10.3154H15.3016V16.0971H5.95862C5.09014 16.0971 4.49038 16.681 4.49038 17.511C4.49038 18.3409 5.09014 18.9569 5.95862 18.9569H15.3016V31.9961H0V26.2004Z" fill="black"/>
<path d="M51.1759 21.7567C52.7026 21.7567 53.8709 20.5567 53.8709 18.9888C53.8709 17.4209 52.7026 16.221 51.1759 16.221C49.6493 16.221 48.4809 17.4209 48.4809 18.9888C48.4809 20.5567 49.6493 21.7567 51.1759 21.7567ZM51.4738 10.3174C56.6243 10.3174 60.1567 13.8532 60.1567 18.9908C60.1567 24.1285 56.6224 27.6643 51.4738 27.6643H49.7077V32H42.9702V10.3194H51.4738V10.3174Z" fill="black"/>
<path d="M46.6447 4.47972C46.6447 6.95356 44.6916 8.95944 42.2828 8.95944C39.8741 8.95944 37.921 6.95356 37.921 4.47972C37.921 2.00587 39.8741 0 42.2828 0C44.6916 0 46.6447 2.00587 46.6447 4.47972Z" fill="#FF66FF"/>
<path d="M74.0349 14.3332C74.0349 16.8071 72.0818 18.813 69.673 18.813C67.2643 18.813 65.3112 16.8071 65.3112 14.3332C65.3112 11.8594 67.2643 9.85352 69.673 9.85352C72.0818 9.85352 74.0349 11.8594 74.0349 14.3332Z" fill="#FF66FF"/>
<path d="M69.8405 23.6406C69.8405 26.1145 67.8874 28.1203 65.4786 28.1203C63.0699 28.1203 61.1168 26.1145 61.1168 23.6406C61.1168 21.1668 63.0699 19.1609 65.4786 19.1609C67.8874 19.1609 69.8405 21.1668 69.8405 23.6406Z" fill="#FF66FF"/>
<path d="M125.717 27C120.488 27 116.897 23.3774 116.897 18.1167C116.897 12.856 120.488 9.23333 125.717 9.23333H133.277V18.9042H124.835C123.953 18.9042 123.323 19.5027 123.323 20.3533C123.323 21.2038 123.953 21.8023 124.835 21.8023H133.277V27H125.717ZM125.937 15.9431C126.946 15.9431 127.733 15.1871 127.733 14.179C127.733 13.1395 126.946 12.3835 125.937 12.3835C124.929 12.3835 124.142 13.1395 124.142 14.179C124.142 15.1871 124.929 15.9431 125.937 15.9431ZM135.016 27V19.5342H139.647C140.592 19.5342 141.19 18.9357 141.19 18.0852C141.19 17.2346 140.592 16.6361 139.647 16.6361H135.016V9.23333H142.104V12.2259C142.104 13.2655 142.702 13.801 143.584 13.801C144.466 13.801 145.065 13.2655 145.065 12.2259V9.23333H152.153V16.6361H147.522C146.577 16.6361 145.978 17.2346 145.978 18.0852C145.978 18.9357 146.577 19.5342 147.522 19.5342H152.153V27H145.065V24.0704C145.065 23.0309 144.466 22.4953 143.584 22.4953C142.702 22.4953 142.104 23.0309 142.104 24.0704V27H135.016ZM153.893 9.23333H162.84C168.258 9.23333 171.975 12.856 171.975 18.1167C171.975 23.3774 168.258 27 162.84 27H160.981V31.4417H153.893V9.23333ZM162.525 20.9518C164.131 20.9518 165.36 19.7232 165.36 18.1167C165.36 16.5101 164.131 15.2816 162.525 15.2816C160.918 15.2816 159.689 16.5101 159.689 18.1167C159.689 19.7232 160.918 20.9518 162.525 20.9518ZM173.232 27V4.79167H180.477V27H173.232ZM191.371 27.4725C185.858 27.4725 181.731 23.4719 181.731 18.1167C181.731 12.793 185.858 8.76082 191.371 8.76082C196.883 8.76082 201.01 12.793 201.01 18.1167C201.01 23.4719 196.883 27.4725 191.371 27.4725ZM191.371 21.0463C193.04 21.0463 194.3 19.7862 194.3 18.1167C194.3 16.4471 193.04 15.1871 191.371 15.1871C189.701 15.1871 188.441 16.4471 188.441 18.1167C188.441 19.7862 189.701 21.0463 191.371 21.0463ZM202.281 27V9.23333H217.433L219.764 18.8412H212.204V15.2501C212.204 14.3365 211.668 13.801 210.786 13.801C209.841 13.801 209.369 14.3365 209.369 15.2501V27H202.281ZM229.045 27C223.815 27 220.224 23.3774 220.224 18.1167C220.224 12.856 223.815 9.23333 229.045 9.23333H236.605V18.9042H228.162C227.28 18.9042 226.65 19.5027 226.65 20.3533C226.65 21.2038 227.28 21.8023 228.162 21.8023H236.605V27H229.045ZM229.265 15.9431C230.273 15.9431 231.061 15.1871 231.061 14.179C231.061 13.1395 230.273 12.3835 229.265 12.3835C228.257 12.3835 227.469 13.1395 227.469 14.179C227.469 15.1871 228.257 15.9431 229.265 15.9431ZM238.344 27V9.23333H253.496L255.827 18.8412H248.266V15.2501C248.266 14.3365 247.731 13.801 246.849 13.801C245.904 13.801 245.431 14.3365 245.431 15.2501V27H238.344Z" fill="#727272"/>
</svg>
