<svg width="257" height="32" viewBox="0 0 257 32" fill="none" xmlns="http://www.w3.org/2000/svg">
<path d="M101.473 21.8467C103.06 21.8467 104.258 20.6168 104.258 18.9869C104.258 17.357 103.06 16.1271 101.473 16.1271C99.8862 16.1271 98.6886 17.357 98.6886 18.9869C98.6886 20.6168 99.8862 21.8467 101.473 21.8467ZM92.2529 18.9869L95.1271 10.3154H107.821L110.666 18.9869L107.821 27.6583H95.1271L92.2529 18.9869Z" fill="#F6F6F6"/>
<path d="M84.049 19.4786C82.7015 19.4786 81.7143 18.4647 81.7143 17.0807C81.7143 15.6968 82.7015 14.7129 84.049 14.7129C85.3965 14.7129 86.3857 15.7268 86.3857 17.0807C86.3857 18.4347 85.3985 19.4786 84.049 19.4786ZM81.9226 10.3472C77.8198 10.3472 75.3662 13.207 75.3662 17.0208C75.3662 20.8345 77.8217 23.7243 81.9226 23.7243H84.9467C85.8152 23.7243 86.413 24.3083 86.413 25.1382V25.4802C86.413 26.3102 85.8152 26.9261 84.9467 26.9261H75.9056V31.9998H91.5051V10.3492H81.9246L81.9226 10.3472Z" fill="#F6F6F6"/>
<path d="M41.5912 10.3174H34.585V27.6623H41.5912V10.3174Z" fill="#F6F6F6"/>
<path d="M16.6797 5.97949H23.5379V12.9611C23.5379 13.883 24.0773 14.469 24.9458 14.469C25.8143 14.469 26.3537 13.885 26.3537 12.9611V10.3172H33.21V17.5448H23.2381C22.3696 17.5448 21.7698 18.1287 21.7698 18.9587C21.7698 19.7886 22.3696 20.3726 23.2381 20.3726H33.21V27.6621H26.3537V24.9563C26.3537 24.0344 25.8143 23.4484 24.9458 23.4484C24.0773 23.4484 23.5379 24.0324 23.5379 24.9563V27.6621H16.6797V5.98149V5.97949Z" fill="#F6F6F6"/>
<path d="M0 26.2004H9.34295C10.2114 26.2004 10.8092 25.6165 10.8092 24.7865C10.8092 23.9566 10.2114 23.3406 9.34295 23.3406L0 23.2786V10.3154H15.3016V16.0971H5.95862C5.09014 16.0971 4.49038 16.681 4.49038 17.511C4.49038 18.3409 5.09014 18.9569 5.95862 18.9569H15.3016V31.9961H0V26.2004Z" fill="#F6F6F6"/>
<path d="M51.1765 21.7567C52.7031 21.7567 53.8715 20.5567 53.8715 18.9888C53.8715 17.4209 52.7031 16.221 51.1765 16.221C49.6498 16.221 48.4814 17.4209 48.4814 18.9888C48.4814 20.5567 49.6498 21.7567 51.1765 21.7567ZM51.4744 10.3174C56.6249 10.3174 60.1572 13.8532 60.1572 18.9908C60.1572 24.1285 56.6229 27.6643 51.4744 27.6643H49.7082V32H42.9707V10.3194H51.4744V10.3174Z" fill="#F6F6F6"/>
<path d="M46.6446 4.47972C46.6446 6.95356 44.6915 8.95944 42.2828 8.95944C39.874 8.95944 37.9209 6.95356 37.9209 4.47972C37.9209 2.00587 39.874 0 42.2828 0C44.6915 0 46.6446 2.00587 46.6446 4.47972Z" fill="#FF66FF"/>
<path d="M74.0352 14.3332C74.0352 16.8071 72.0821 18.813 69.6734 18.813C67.2646 18.813 65.3115 16.8071 65.3115 14.3332C65.3115 11.8594 67.2646 9.85352 69.6734 9.85352C72.0821 9.85352 74.0352 11.8594 74.0352 14.3332Z" fill="#FF66FF"/>
<path d="M69.8399 23.6404C69.8399 26.1142 67.8868 28.1201 65.4781 28.1201C63.0693 28.1201 61.1162 26.1142 61.1162 23.6404C61.1162 21.1665 63.0693 19.1606 65.4781 19.1606C67.8868 19.1606 69.8399 21.1665 69.8399 23.6404Z" fill="#FF66FF"/>
<path d="M125.717 27C120.488 27 116.897 23.3774 116.897 18.1167C116.897 12.856 120.488 9.23333 125.717 9.23333H133.277V18.9042H124.835C123.953 18.9042 123.323 19.5027 123.323 20.3533C123.323 21.2038 123.953 21.8023 124.835 21.8023H133.277V27H125.717ZM125.937 15.9431C126.946 15.9431 127.733 15.1871 127.733 14.179C127.733 13.1395 126.946 12.3835 125.937 12.3835C124.929 12.3835 124.142 13.1395 124.142 14.179C124.142 15.1871 124.929 15.9431 125.937 15.9431ZM135.016 27V19.5342H139.647C140.592 19.5342 141.19 18.9357 141.19 18.0852C141.19 17.2346 140.592 16.6361 139.647 16.6361H135.016V9.23333H142.104V12.2259C142.104 13.2655 142.702 13.801 143.584 13.801C144.466 13.801 145.065 13.2655 145.065 12.2259V9.23333H152.153V16.6361H147.522C146.577 16.6361 145.978 17.2346 145.978 18.0852C145.978 18.9357 146.577 19.5342 147.522 19.5342H152.153V27H145.065V24.0704C145.065 23.0309 144.466 22.4953 143.584 22.4953C142.702 22.4953 142.104 23.0309 142.104 24.0704V27H135.016ZM153.893 9.23333H162.84C168.258 9.23333 171.975 12.856 171.975 18.1167C171.975 23.3774 168.258 27 162.84 27H160.981V31.4417H153.893V9.23333ZM162.525 20.9518C164.131 20.9518 165.36 19.7232 165.36 18.1167C165.36 16.5101 164.131 15.2816 162.525 15.2816C160.918 15.2816 159.689 16.5101 159.689 18.1167C159.689 19.7232 160.918 20.9518 162.525 20.9518ZM173.232 27V4.79167H180.477V27H173.232ZM191.371 27.4725C185.858 27.4725 181.731 23.4719 181.731 18.1167C181.731 12.793 185.858 8.76082 191.371 8.76082C196.883 8.76082 201.01 12.793 201.01 18.1167C201.01 23.4719 196.883 27.4725 191.371 27.4725ZM191.371 21.0463C193.04 21.0463 194.3 19.7862 194.3 18.1167C194.3 16.4471 193.04 15.1871 191.371 15.1871C189.701 15.1871 188.441 16.4471 188.441 18.1167C188.441 19.7862 189.701 21.0463 191.371 21.0463ZM202.281 27V9.23333H217.433L219.764 18.8412H212.204V15.2501C212.204 14.3365 211.668 13.801 210.786 13.801C209.841 13.801 209.369 14.3365 209.369 15.2501V27H202.281ZM229.045 27C223.815 27 220.224 23.3774 220.224 18.1167C220.224 12.856 223.815 9.23333 229.045 9.23333H236.605V18.9042H228.162C227.28 18.9042 226.65 19.5027 226.65 20.3533C226.65 21.2038 227.28 21.8023 228.162 21.8023H236.605V27H229.045ZM229.265 15.9431C230.273 15.9431 231.061 15.1871 231.061 14.179C231.061 13.1395 230.273 12.3835 229.265 12.3835C228.257 12.3835 227.469 13.1395 227.469 14.179C227.469 15.1871 228.257 15.9431 229.265 15.9431ZM238.344 27V9.23333H253.496L255.827 18.8412H248.266V15.2501C248.266 14.3365 247.731 13.801 246.849 13.801C245.904 13.801 245.431 14.3365 245.431 15.2501V27H238.344Z" fill="#727272"/>
</svg>
