<svg width="1440" height="960" viewBox="0 0 1440 960" fill="none" xmlns="http://www.w3.org/2000/svg">
<g clip-path="url(#clip0_26_5574)">
<rect width="1440" height="960" fill="#191919"/>
<mask id="mask0_26_5574" style="mask-type:alpha" maskUnits="userSpaceOnUse" x="0" y="0" width="1440" height="960">
<rect width="1440" height="960" fill="#D9D9D9"/>
</mask>
<g mask="url(#mask0_26_5574)">
<path d="M227.255 138.275H-67.3359V432.864H227.255V138.275Z" fill="#262626"/>
<path d="M863.498 449.742H568.906V744.331H863.498V449.742Z" fill="#262626"/>
<path d="M545.376 761.268H250.785V1055.86H545.376V761.268Z" fill="#262626"/>
<path d="M545.376 -173.316H250.785V121.273H545.376V-173.316Z" fill="#262626"/>
<path d="M1499.74 -173.316H1205.15V121.273H1499.74V-173.316Z" fill="#FF66FF"/>
<path d="M300.204 138.272L235.254 285.539L300.204 432.801H495.955L560.905 285.539L495.955 138.272H300.204Z" fill="#262626"/>
<path d="M936.446 449.802L871.496 597.068L936.446 744.331H1132.2L1197.15 597.068L1132.2 449.802H936.446Z" fill="#262626"/>
<path d="M227.255 597.16C227.255 515.814 161.313 449.864 79.9598 449.864C-1.38582 449.864 -67.3359 515.814 -67.3359 597.16C-67.3359 678.513 -1.38582 744.456 79.9598 744.456C161.313 744.456 227.255 678.513 227.255 597.16Z" fill="#0061FF"/>
<path d="M1181.62 -26.0208C1181.62 -107.366 1115.68 -173.316 1034.32 -173.316C952.977 -173.316 887.027 -107.366 887.027 -26.0208C887.027 55.3325 952.977 121.275 1034.32 121.275C1115.68 121.275 1181.62 55.3325 1181.62 -26.0208Z" fill="#262626"/>
<path d="M863.498 908.561C863.498 827.216 797.555 761.266 716.202 761.266C634.856 761.266 568.906 827.216 568.906 908.561C568.906 989.915 634.856 1055.86 716.202 1055.86C797.555 1055.86 863.498 989.915 863.498 908.561Z" fill="#262626"/>
<path d="M1499.74 597.16C1499.74 515.814 1433.8 449.864 1352.44 449.864C1271.1 449.864 1205.15 515.814 1205.15 597.16C1205.15 678.513 1271.1 744.456 1352.44 744.456C1433.8 744.456 1499.74 678.513 1499.74 597.16Z" fill="#262626"/>
<path d="M1181.62 285.506C1181.62 204.16 1115.68 138.21 1034.32 138.21C952.977 138.21 887.027 204.16 887.027 285.506C887.027 366.859 952.977 432.801 1034.32 432.801C1115.68 432.801 1181.62 366.859 1181.62 285.506Z" fill="#262626"/>
<rect x="21.2852" y="227.295" width="117.344" height="117.344" rx="58.6719" fill="#191919"/>
<rect x="1293.77" y="-84.6924" width="117.344" height="117.344" rx="58.6719" fill="#191919"/>
<rect x="657.531" y="538.488" width="117.344" height="117.344" fill="#191919"/>
<path d="M995.656 227.295L969.996 285.475L995.656 343.654H1072.99L1098.65 285.475L1072.99 227.295H995.656Z" fill="#191919"/>
<path d="M41.2926 538.98L15.6328 597.161L41.2926 655.34H118.628L144.287 597.161L118.628 538.98H41.2926Z" fill="#191919"/>
<path d="M1068.94 900.452C1068.94 904.812 1070.23 908.531 1072.79 911.608C1075.35 914.942 1078.69 916.609 1082.79 916.609C1087.41 916.609 1091.51 914.429 1095.1 910.069L1141.26 855.831L1187.81 902.376L1034.32 1055.86L880.84 902.376L927 856.215L973.16 910.069C976.494 914.172 980.469 916.224 985.085 916.224C989.188 916.224 992.522 914.685 995.087 911.608C997.908 908.787 999.318 905.197 999.318 900.837L999.318 761.268L1068.94 761.268L1068.94 900.452Z" fill="#FFC900"/>
</g>
</g>
<defs>
<clipPath id="clip0_26_5574">
<rect width="1440" height="960" fill="white"/>
</clipPath>
</defs>
</svg>
