<svg width="1157" height="492" viewBox="0 0 1157 492" fill="none" xmlns="http://www.w3.org/2000/svg">
<path d="M0 0H1157V492H0V0Z" fill="black"/>
<path d="M97.4375 448.632C97.4375 447.744 96.8855 447.192 95.9975 447.192H91.8695V445.08H105.166V447.192H101.038C100.15 447.192 99.5975 447.744 99.5975 448.632V462H97.4375V448.632ZM107.314 462V445.08H109.474V450.384H116.914V462H114.754V454.992C114.754 453.192 113.674 452.184 112.114 452.184C110.53 452.184 109.474 453.192 109.474 454.992V462H107.314ZM125.416 462C121.744 462 119.32 459.672 119.32 456.192C119.32 452.712 121.744 450.384 125.416 450.384H130.12V457.176H123.664V455.088H126.904C127.744 455.088 128.32 454.632 128.32 453.768C128.32 452.928 127.744 452.472 126.904 452.472H125.344C122.848 452.472 121.48 453.84 121.48 456.144C121.48 458.496 122.872 459.888 125.344 459.888H130.12V462H125.416ZM144.846 462C141.174 462 138.75 459.672 138.75 456.192C138.75 452.712 141.174 450.384 144.846 450.384H149.55V457.176H143.094V455.088H146.334C147.174 455.088 147.75 454.632 147.75 453.768C147.75 452.928 147.174 452.472 146.334 452.472H144.774C142.278 452.472 140.91 453.84 140.91 456.144C140.91 458.496 142.302 459.888 144.774 459.888H149.55V462H144.846ZM155.713 462C153.721 462 152.185 460.704 152.185 458.568C152.185 456.432 153.721 455.136 155.713 455.136H159.001C160.057 455.136 160.489 454.536 160.489 453.816C160.489 453.096 160.057 452.496 159.001 452.496H152.665V450.384H162.289V462H155.713ZM159.001 459.888C160.057 459.888 160.489 459.288 160.489 458.568C160.489 457.848 160.057 457.248 159.001 457.248H155.761C154.753 457.248 154.297 457.872 154.297 458.568C154.297 459.264 154.753 459.888 155.761 459.888H159.001ZM165.415 462V459.888H171.247C172.159 459.888 172.735 459.384 172.735 458.568C172.735 457.752 172.159 457.248 171.247 457.248H165.415V450.384H174.559V452.496H168.703C167.791 452.496 167.215 453 167.215 453.816C167.215 454.632 167.791 455.136 168.703 455.136H174.535V462H165.415ZM177.673 462V450.384H179.833V462H177.673ZM178.729 448.56C177.697 448.56 176.833 447.696 176.833 446.616C176.833 445.608 177.697 444.72 178.729 444.72C179.785 444.72 180.673 445.608 180.673 446.616C180.673 447.696 179.785 448.56 178.729 448.56ZM188.323 462C184.651 462 182.227 459.672 182.227 456.192C182.227 452.712 184.651 450.384 188.323 450.384H193.027V457.176H186.571V455.088H189.811C190.651 455.088 191.227 454.632 191.227 453.768C191.227 452.928 190.651 452.472 189.811 452.472H188.251C185.755 452.472 184.387 453.84 184.387 456.144C184.387 458.496 185.779 459.888 188.251 459.888H193.027V462H188.323ZM196.142 462V459.888H201.974C202.886 459.888 203.462 459.384 203.462 458.568C203.462 457.752 202.886 457.248 201.974 457.248H196.142V450.384H205.286V452.496H199.43C198.518 452.496 197.942 453 197.942 453.816C197.942 454.632 198.518 455.136 199.43 455.136H205.262V462H196.142ZM210.56 462V452.448H207.2V450.384H210.56V446.832H212.72V450.384H216.368V452.496H212.72V458.448C212.72 459.336 213.272 459.888 214.16 459.888H216.248V462H210.56ZM225.119 462L223.919 450.384H226.079L226.991 459.072C227.063 459.768 227.351 460.104 227.951 460.104C228.599 460.104 228.791 459.768 228.863 459.072L229.775 450.384H235.271L236.279 459.072C236.351 459.744 236.591 460.104 237.239 460.104C237.887 460.104 238.127 459.768 238.199 459.072L239.111 450.384H241.199L240.023 462H234.479L233.471 453.384C233.399 452.688 233.159 452.28 232.511 452.28C231.887 452.28 231.575 452.688 231.503 453.384L230.591 462H225.119ZM246.534 462C244.542 462 243.006 460.704 243.006 458.568C243.006 456.432 244.542 455.136 246.534 455.136H249.822C250.878 455.136 251.31 454.536 251.31 453.816C251.31 453.096 250.878 452.496 249.822 452.496H243.486V450.384H253.11V462H246.534ZM249.822 459.888C250.878 459.888 251.31 459.288 251.31 458.568C251.31 457.848 250.878 457.248 249.822 457.248H246.582C245.574 457.248 245.118 457.872 245.118 458.568C245.118 459.264 245.574 459.888 246.582 459.888H249.822ZM255.684 465.84V463.728H259.62C260.628 463.728 261.252 463.176 261.252 462.264C261.252 461.352 260.628 460.8 259.62 460.8H258.132L255.156 450.384H257.388L259.452 457.776C259.692 458.64 260.1 459 260.772 459C261.516 459 261.924 458.64 262.14 457.776L264.084 450.384H266.268L262.188 465.84H255.684ZM276.466 462V452.448H273.106V450.384H276.466V446.832H278.626V450.384H282.274V452.496H278.626V458.448C278.626 459.336 279.178 459.888 280.066 459.888H282.154V462H276.466ZM289.525 462.36C286.045 462.36 283.477 459.72 283.477 456.192C283.477 452.664 286.045 450.024 289.525 450.024C293.005 450.024 295.573 452.664 295.573 456.192C295.573 459.72 293.005 462.36 289.525 462.36ZM289.525 460.248C291.829 460.248 293.413 458.592 293.413 456.192C293.413 453.792 291.829 452.136 289.525 452.136C287.221 452.136 285.637 453.792 285.637 456.192C285.637 458.592 287.221 460.248 289.525 460.248ZM309.54 462.36C306.06 462.36 303.492 459.72 303.492 456.192C303.492 452.664 306.06 450.024 309.54 450.024C313.02 450.024 315.588 452.664 315.588 456.192C315.588 459.72 313.02 462.36 309.54 462.36ZM309.54 460.248C311.844 460.248 313.428 458.592 313.428 456.192C313.428 453.792 311.844 452.136 309.54 452.136C307.236 452.136 305.652 453.792 305.652 456.192C305.652 458.592 307.236 460.248 309.54 460.248ZM317.994 462V450.384H327.594V462H325.434V454.992C325.434 453.192 324.354 452.184 322.794 452.184C321.21 452.184 320.154 453.192 320.154 454.992V462H317.994ZM330.72 462V445.08H332.88V450.384H335.736C339.48 450.384 341.784 452.568 341.784 456.192C341.784 459.816 339.48 462 335.736 462H330.72ZM332.88 458.448C332.88 459.336 333.432 459.888 334.32 459.888H335.64C338.16 459.888 339.624 458.544 339.624 456.192C339.624 453.84 338.16 452.496 335.64 452.496H334.32C333.432 452.496 332.88 453.048 332.88 453.936V458.448ZM349.501 462.36C346.021 462.36 343.453 459.72 343.453 456.192C343.453 452.664 346.021 450.024 349.501 450.024C352.981 450.024 355.549 452.664 355.549 456.192C355.549 459.72 352.981 462.36 349.501 462.36ZM349.501 460.248C351.805 460.248 353.389 458.592 353.389 456.192C353.389 453.792 351.805 452.136 349.501 452.136C347.197 452.136 345.613 453.792 345.613 456.192C345.613 458.592 347.197 460.248 349.501 460.248ZM361.003 462C359.011 462 357.475 460.704 357.475 458.568C357.475 456.432 359.011 455.136 361.003 455.136H364.291C365.347 455.136 365.779 454.536 365.779 453.816C365.779 453.096 365.347 452.496 364.291 452.496H357.955V450.384H367.579V462H361.003ZM364.291 459.888C365.347 459.888 365.779 459.288 365.779 458.568C365.779 457.848 365.347 457.248 364.291 457.248H361.051C360.043 457.248 359.587 457.872 359.587 458.568C359.587 459.264 360.043 459.888 361.051 459.888H364.291ZM370.705 462V450.384H377.065L378.577 455.232H375.961V453.912C375.961 452.832 375.289 452.256 374.425 452.256C373.513 452.256 372.865 452.832 372.865 453.912V462H370.705ZM386.139 462C382.467 462 379.899 459.768 379.899 456.192C379.899 452.616 382.467 450.384 386.139 450.384H388.803V445.08H390.963V462H386.139ZM387.363 459.888C388.251 459.888 388.803 459.336 388.803 458.448V453.936C388.803 453.048 388.251 452.496 387.363 452.496H386.091C383.595 452.496 382.059 453.84 382.059 456.192C382.059 458.544 383.595 459.888 386.091 459.888H387.363ZM403.354 462C401.362 462 399.826 460.704 399.826 458.568C399.826 456.432 401.362 455.136 403.354 455.136H406.642C407.698 455.136 408.13 454.536 408.13 453.816C408.13 453.096 407.698 452.496 406.642 452.496H400.306V450.384H409.93V462H403.354ZM406.642 459.888C407.698 459.888 408.13 459.288 408.13 458.568C408.13 457.848 407.698 457.248 406.642 457.248H403.402C402.394 457.248 401.938 457.872 401.938 458.568C401.938 459.264 402.394 459.888 403.402 459.888H406.642ZM413.056 462V450.384H422.656V462H420.496V454.992C420.496 453.192 419.416 452.184 417.856 452.184C416.272 452.184 415.216 453.192 415.216 454.992V462H413.056ZM425.231 465.84V463.728H429.167C430.175 463.728 430.799 463.176 430.799 462.264C430.799 461.352 430.175 460.8 429.167 460.8H427.679L424.703 450.384H426.935L428.999 457.776C429.239 458.64 429.647 459 430.319 459C431.063 459 431.471 458.64 431.687 457.776L433.631 450.384H435.815L431.735 465.84H425.231ZM440.247 462V452.448H436.887V450.384H440.247V446.832H442.407V450.384H446.055V452.496H442.407V458.448C442.407 459.336 442.959 459.888 443.847 459.888H445.935V462H440.247ZM448.212 462V445.08H450.372V450.384H457.812V462H455.652V454.992C455.652 453.192 454.572 452.184 453.012 452.184C451.428 452.184 450.372 453.192 450.372 454.992V462H448.212ZM460.939 462V450.384H463.099V462H460.939ZM461.995 448.56C460.963 448.56 460.099 447.696 460.099 446.616C460.099 445.608 460.963 444.72 461.995 444.72C463.051 444.72 463.939 445.608 463.939 446.616C463.939 447.696 463.051 448.56 461.995 448.56ZM466.212 462V450.384H475.812V462H473.652V454.992C473.652 453.192 472.572 452.184 471.012 452.184C469.428 452.184 468.372 453.192 468.372 454.992V462H466.212ZM479.011 465.84V463.728H485.827C486.859 463.728 487.459 463.104 487.459 462.24C487.459 461.376 486.859 460.752 485.827 460.752H483.643C480.355 460.752 478.219 458.688 478.219 455.568C478.219 452.472 480.355 450.36 483.643 450.36H489.259V465.84H479.011ZM485.659 458.64C486.547 458.64 487.099 458.088 487.099 457.2V453.912C487.099 453.024 486.547 452.472 485.659 452.472H483.763C481.675 452.472 480.403 453.672 480.403 455.568C480.403 457.464 481.675 458.64 483.763 458.64H485.659ZM501.291 462V452.496H497.523V450.384H501.291V445.08H507.699V447.192H504.843C503.571 447.192 503.019 447.888 503.019 448.776C503.019 449.664 503.571 450.384 504.843 450.384H507.699V452.496H503.451V462H501.291ZM509.853 462V450.384H516.213L517.725 455.232H515.109V453.912C515.109 452.832 514.437 452.256 513.573 452.256C512.661 452.256 512.013 452.832 512.013 453.912V462H509.853ZM525.095 462.36C521.615 462.36 519.047 459.72 519.047 456.192C519.047 452.664 521.615 450.024 525.095 450.024C528.575 450.024 531.143 452.664 531.143 456.192C531.143 459.72 528.575 462.36 525.095 462.36ZM525.095 460.248C527.399 460.248 528.983 458.592 528.983 456.192C528.983 453.792 527.399 452.136 525.095 452.136C522.791 452.136 521.207 453.792 521.207 456.192C521.207 458.592 522.791 460.248 525.095 460.248ZM540.988 462V454.992C540.988 453.192 539.908 452.184 538.348 452.184C536.764 452.184 535.708 453.192 535.708 454.992V462H533.548V450.384H550.588V462H548.428V454.992C548.428 453.192 547.348 452.184 545.788 452.184C544.204 452.184 543.148 453.192 543.148 454.992V462H540.988ZM562.987 462C560.995 462 559.459 460.704 559.459 458.568C559.459 456.432 560.995 455.136 562.987 455.136H566.275C567.331 455.136 567.763 454.536 567.763 453.816C567.763 453.096 567.331 452.496 566.275 452.496H559.939V450.384H569.563V462H562.987ZM566.275 459.888C567.331 459.888 567.763 459.288 567.763 458.568C567.763 457.848 567.331 457.248 566.275 457.248H563.035C562.027 457.248 561.571 457.872 561.571 458.568C561.571 459.264 562.027 459.888 563.035 459.888H566.275ZM572.689 462V450.384H582.289V462H580.129V454.992C580.129 453.192 579.049 452.184 577.489 452.184C575.905 452.184 574.849 453.192 574.849 454.992V462H572.689ZM584.863 465.84V463.728H588.799C589.807 463.728 590.431 463.176 590.431 462.264C590.431 461.352 589.807 460.8 588.799 460.8H587.311L584.335 450.384H586.567L588.631 457.776C588.871 458.64 589.279 459 589.951 459C590.695 459 591.103 458.64 591.319 457.776L593.263 450.384H595.447L591.367 465.84H584.863ZM597.963 462L596.763 450.384H598.923L599.835 459.072C599.907 459.768 600.195 460.104 600.795 460.104C601.443 460.104 601.635 459.768 601.707 459.072L602.619 450.384H608.115L609.123 459.072C609.195 459.744 609.435 460.104 610.083 460.104C610.731 460.104 610.971 459.768 611.043 459.072L611.955 450.384H614.043L612.867 462H607.323L606.315 453.384C606.243 452.688 606.003 452.28 605.355 452.28C604.731 452.28 604.419 452.688 604.347 453.384L603.435 462H597.963ZM616.33 462V445.08H618.49V450.384H625.93V462H623.77V454.992C623.77 453.192 622.69 452.184 621.13 452.184C619.546 452.184 618.49 453.192 618.49 454.992V462H616.33ZM634.432 462C630.76 462 628.336 459.672 628.336 456.192C628.336 452.712 630.76 450.384 634.432 450.384H639.136V457.176H632.68V455.088H635.92C636.76 455.088 637.336 454.632 637.336 453.768C637.336 452.928 636.76 452.472 635.92 452.472H634.36C631.864 452.472 630.496 453.84 630.496 456.144C630.496 458.496 631.888 459.888 634.36 459.888H639.136V462H634.432ZM642.251 462V450.384H648.611L650.123 455.232H647.507V453.912C647.507 452.832 646.835 452.256 645.971 452.256C645.059 452.256 644.411 452.832 644.411 453.912V462H642.251ZM657.541 462C653.869 462 651.445 459.672 651.445 456.192C651.445 452.712 653.869 450.384 657.541 450.384H662.245V457.176H655.789V455.088H659.029C659.869 455.088 660.445 454.632 660.445 453.768C660.445 452.928 659.869 452.472 659.029 452.472H657.469C654.973 452.472 653.605 453.84 653.605 456.144C653.605 458.496 654.997 459.888 657.469 459.888H662.245V462H657.541ZM673.521 462V452.448H670.161V450.384H673.521V446.832H675.681V450.384H679.329V452.496H675.681V458.448C675.681 459.336 676.233 459.888 677.121 459.888H679.209V462H673.521ZM686.579 462.36C683.099 462.36 680.531 459.72 680.531 456.192C680.531 452.664 683.099 450.024 686.579 450.024C690.059 450.024 692.627 452.664 692.627 456.192C692.627 459.72 690.059 462.36 686.579 462.36ZM686.579 460.248C688.883 460.248 690.467 458.592 690.467 456.192C690.467 453.792 688.883 452.136 686.579 452.136C684.275 452.136 682.691 453.792 682.691 456.192C682.691 458.592 684.275 460.248 686.579 460.248ZM700.715 465.84V463.728H704.651C705.659 463.728 706.283 463.176 706.283 462.264C706.283 461.352 705.659 460.8 704.651 460.8H703.163L700.187 450.384H702.419L704.483 457.776C704.723 458.64 705.131 459 705.803 459C706.547 459 706.955 458.64 707.171 457.776L709.115 450.384H711.299L707.219 465.84H700.715ZM718.314 462.36C714.834 462.36 712.266 459.72 712.266 456.192C712.266 452.664 714.834 450.024 718.314 450.024C721.794 450.024 724.362 452.664 724.362 456.192C724.362 459.72 721.794 462.36 718.314 462.36ZM718.314 460.248C720.618 460.248 722.202 458.592 722.202 456.192C722.202 453.792 720.618 452.136 718.314 452.136C716.01 452.136 714.426 453.792 714.426 456.192C714.426 458.592 716.01 460.248 718.314 460.248ZM736.367 450.384V462H726.767V450.384H728.927V457.392C728.927 459.192 730.007 460.2 731.567 460.2C733.151 460.2 734.207 459.192 734.207 457.392V450.384H736.367ZM739.494 462V450.384H745.854L747.366 455.232H744.75V453.912C744.75 452.832 744.078 452.256 743.214 452.256C742.302 452.256 741.654 452.832 741.654 453.912V462H739.494ZM760.808 462C757.112 462 754.688 459.696 754.688 456.192C754.688 452.688 757.112 450.384 760.808 450.384H763.112L764 452.496H760.856C758.384 452.496 756.872 453.912 756.872 456.144C756.872 458.448 758.384 459.888 760.856 459.888H764L763.112 462H760.808ZM771.376 462.36C767.896 462.36 765.328 459.72 765.328 456.192C765.328 452.664 767.896 450.024 771.376 450.024C774.856 450.024 777.424 452.664 777.424 456.192C777.424 459.72 774.856 462.36 771.376 462.36ZM771.376 460.248C773.68 460.248 775.264 458.592 775.264 456.192C775.264 453.792 773.68 452.136 771.376 452.136C769.072 452.136 767.488 453.792 767.488 456.192C767.488 458.592 769.072 460.248 771.376 460.248ZM779.83 462V450.384H786.19L787.702 455.232H785.086V453.912C785.086 452.832 784.414 452.256 783.55 452.256C782.638 452.256 781.99 452.832 781.99 453.912V462H779.83ZM789.744 462V450.384H799.344V462H797.184V454.992C797.184 453.192 796.104 452.184 794.544 452.184C792.96 452.184 791.904 453.192 791.904 454.992V462H789.744ZM807.846 462C804.174 462 801.75 459.672 801.75 456.192C801.75 452.712 804.174 450.384 807.846 450.384H812.55V457.176H806.094V455.088H809.334C810.174 455.088 810.75 454.632 810.75 453.768C810.75 452.928 810.174 452.472 809.334 452.472H807.774C805.278 452.472 803.91 453.84 803.91 456.144C803.91 458.496 805.302 459.888 807.774 459.888H812.55V462H807.846ZM815.665 462V450.384H822.025L823.537 455.232H820.921V453.912C820.921 452.832 820.249 452.256 819.385 452.256C818.473 452.256 817.825 452.832 817.825 453.912V462H815.665ZM836.908 462.36C833.428 462.36 830.86 459.72 830.86 456.192C830.86 452.664 833.428 450.024 836.908 450.024C840.388 450.024 842.956 452.664 842.956 456.192C842.956 459.72 840.388 462.36 836.908 462.36ZM836.908 460.248C839.212 460.248 840.796 458.592 840.796 456.192C840.796 453.792 839.212 452.136 836.908 452.136C834.604 452.136 833.02 453.792 833.02 456.192C833.02 458.592 834.604 460.248 836.908 460.248ZM847.58 462V452.496H843.812V450.384H847.58V445.08H853.988V447.192H851.132C849.86 447.192 849.308 447.888 849.308 448.776C849.308 449.664 849.86 450.384 851.132 450.384H853.988V452.496H849.74V462H847.58ZM864.185 462V452.448H860.825V450.384H864.185V446.832H866.345V450.384H869.993V452.496H866.345V458.448C866.345 459.336 866.897 459.888 867.785 459.888H869.873V462H864.185ZM872.15 462V445.08H874.31V450.384H881.75V462H879.59V454.992C879.59 453.192 878.51 452.184 876.95 452.184C875.366 452.184 874.31 453.192 874.31 454.992V462H872.15ZM890.252 462C886.58 462 884.156 459.672 884.156 456.192C884.156 452.712 886.58 450.384 890.252 450.384H894.956V457.176H888.5V455.088H891.74C892.58 455.088 893.156 454.632 893.156 453.768C893.156 452.928 892.58 452.472 891.74 452.472H890.18C887.684 452.472 886.316 453.84 886.316 456.144C886.316 458.496 887.708 459.888 890.18 459.888H894.956V462H890.252ZM904.306 462V459.888H910.138C911.05 459.888 911.626 459.384 911.626 458.568C911.626 457.752 911.05 457.248 910.138 457.248H904.306V450.384H913.45V452.496H907.594C906.682 452.496 906.106 453 906.106 453.816C906.106 454.632 906.682 455.136 907.594 455.136H913.426V462H904.306ZM921.892 462.36C918.412 462.36 915.844 459.72 915.844 456.192C915.844 452.664 918.412 450.024 921.892 450.024C925.372 450.024 927.94 452.664 927.94 456.192C927.94 459.72 925.372 462.36 921.892 462.36ZM921.892 460.248C924.196 460.248 925.78 458.592 925.78 456.192C925.78 453.792 924.196 452.136 921.892 452.136C919.588 452.136 918.004 453.792 918.004 456.192C918.004 458.592 919.588 460.248 921.892 460.248ZM932.13 462L928.914 450.384H931.146L933.45 459.096C933.618 459.696 933.93 460.08 934.578 460.08C935.226 460.08 935.514 459.696 935.682 459.096L937.986 450.384H940.218L936.978 462H932.13ZM947.276 462C943.604 462 941.18 459.672 941.18 456.192C941.18 452.712 943.604 450.384 947.276 450.384H951.98V457.176H945.524V455.088H948.764C949.604 455.088 950.18 454.632 950.18 453.768C950.18 452.928 949.604 452.472 948.764 452.472H947.204C944.708 452.472 943.34 453.84 943.34 456.144C943.34 458.496 944.732 459.888 947.204 459.888H951.98V462H947.276ZM955.095 462V450.384H961.455L962.967 455.232H960.351V453.912C960.351 452.832 959.679 452.256 958.815 452.256C957.903 452.256 957.255 452.832 957.255 453.912V462H955.095ZM970.385 462C966.713 462 964.289 459.672 964.289 456.192C964.289 452.712 966.713 450.384 970.385 450.384H975.089V457.176H968.633V455.088H971.873C972.713 455.088 973.289 454.632 973.289 453.768C973.289 452.928 972.713 452.472 971.873 452.472H970.313C967.817 452.472 966.449 453.84 966.449 456.144C966.449 458.496 967.841 459.888 970.313 459.888H975.089V462H970.385ZM978.205 462V450.384H980.365V462H978.205ZM979.261 448.56C978.229 448.56 977.365 447.696 977.365 446.616C977.365 445.608 978.229 444.72 979.261 444.72C980.317 444.72 981.205 445.608 981.205 446.616C981.205 447.696 980.317 448.56 979.261 448.56ZM983.55 465.84V463.728H990.366C991.398 463.728 991.998 463.104 991.998 462.24C991.998 461.376 991.398 460.752 990.366 460.752H988.182C984.894 460.752 982.758 458.688 982.758 455.568C982.758 452.472 984.894 450.36 988.182 450.36H993.798V465.84H983.55ZM990.198 458.64C991.086 458.64 991.638 458.088 991.638 457.2V453.912C991.638 453.024 991.086 452.472 990.198 452.472H988.302C986.214 452.472 984.942 453.672 984.942 455.568C984.942 457.464 986.214 458.64 988.302 458.64H990.198ZM996.908 462V450.384H1006.51V462H1004.35V454.992C1004.35 453.192 1003.27 452.184 1001.71 452.184C1000.12 452.184 999.068 453.192 999.068 454.992V462H996.908ZM1016.23 462L1015.03 450.384H1017.19L1018.1 459.072C1018.17 459.768 1018.46 460.104 1019.06 460.104C1019.71 460.104 1019.9 459.768 1019.97 459.072L1020.88 450.384H1026.38L1027.39 459.072C1027.46 459.744 1027.7 460.104 1028.35 460.104C1029 460.104 1029.24 459.768 1029.31 459.072L1030.22 450.384H1032.31L1031.13 462H1025.59L1024.58 453.384C1024.51 452.688 1024.27 452.28 1023.62 452.28C1023 452.28 1022.68 452.688 1022.61 453.384L1021.7 462H1016.23ZM1039.85 462C1036.18 462 1033.76 459.672 1033.76 456.192C1033.76 452.712 1036.18 450.384 1039.85 450.384H1044.56V457.176H1038.1V455.088H1041.34C1042.18 455.088 1042.76 454.632 1042.76 453.768C1042.76 452.928 1042.18 452.472 1041.34 452.472H1039.78C1037.29 452.472 1035.92 453.84 1035.92 456.144C1035.92 458.496 1037.31 459.888 1039.78 459.888H1044.56V462H1039.85ZM1047.67 462V445.08H1049.83V450.384H1052.69C1056.43 450.384 1058.74 452.568 1058.74 456.192C1058.74 459.816 1056.43 462 1052.69 462H1047.67ZM1049.83 458.448C1049.83 459.336 1050.39 459.888 1051.27 459.888H1052.59C1055.11 459.888 1056.58 458.544 1056.58 456.192C1056.58 453.84 1055.11 452.496 1052.59 452.496H1051.27C1050.39 452.496 1049.83 453.048 1049.83 453.936V458.448ZM1060.65 462V457.968H1064.42V462H1060.65Z" fill="#F7F7F7"/>
<path d="M655.043 214.1C658.443 214.1 661.243 213 663.443 210.8C665.643 208.6 666.743 205.8 666.743 202.4C666.743 199.1 665.643 196.35 663.443 194.15C661.243 191.95 658.443 190.85 655.043 190.85C651.643 190.85 648.843 191.95 646.643 194.15C644.443 196.35 643.343 199.1 643.343 202.4C643.343 205.8 644.443 208.6 646.643 210.8C648.843 213 651.643 214.1 655.043 214.1ZM644.393 234.95C637.693 234.95 631.843 233.55 626.843 230.75C621.943 227.85 618.143 223.95 615.443 219.05C612.843 214.05 611.543 208.4 611.543 202.1C611.543 195.9 612.843 190.35 615.443 185.45C618.143 180.45 621.943 176.55 626.843 173.75C631.843 170.95 637.693 169.55 644.393 169.55H692.393V275.15H614.243V250.4H660.893C663.593 250.4 665.693 249.7 667.193 248.3C668.793 246.9 669.593 245 669.593 242.6C669.593 240.2 668.793 238.35 667.193 237.05C665.693 235.65 663.593 234.95 660.893 234.95H644.393ZM746.505 256.25C737.905 256.25 730.105 254.35 723.105 250.55C716.105 246.65 710.605 241.3 706.605 234.5C702.605 227.7 700.605 220.1 700.605 211.7C700.605 203.4 702.605 195.85 706.605 189.05C710.605 182.25 716.105 176.9 723.105 173C730.105 169.1 737.905 167.15 746.505 167.15C755.105 167.15 762.905 169.1 769.905 173C776.905 176.9 782.405 182.25 786.405 189.05C790.405 195.85 792.405 203.4 792.405 211.7C792.405 220.1 790.405 227.7 786.405 234.5C782.405 241.3 776.905 246.65 769.905 250.55C762.905 254.35 755.105 256.25 746.505 256.25ZM746.505 225.65C750.505 225.65 753.805 224.35 756.405 221.75C759.105 219.05 760.455 215.7 760.455 211.7C760.455 207.7 759.105 204.4 756.405 201.8C753.805 199.1 750.505 197.75 746.505 197.75C742.505 197.75 739.155 199.1 736.455 201.8C733.855 204.4 732.555 207.7 732.555 211.7C732.555 215.7 733.855 219.05 736.455 221.75C739.155 224.35 742.505 225.65 746.505 225.65Z" fill="#F7F7F7"/>
<path d="M652.438 338V312.62H663.238C667.45 312.62 670.402 315.248 670.402 319.712C670.402 324.176 667.45 326.84 663.238 326.84H657.838C656.506 326.84 655.678 327.668 655.678 329V338H652.438ZM655.678 321.512C655.678 322.844 656.506 323.672 657.838 323.672H662.986C665.614 323.672 667.162 322.16 667.162 319.712C667.162 317.264 665.614 315.788 662.986 315.788H657.838C656.506 315.788 655.678 316.616 655.678 317.948V321.512ZM682.155 338.54C676.935 338.54 673.083 334.58 673.083 329.288C673.083 323.996 676.935 320.036 682.155 320.036C687.375 320.036 691.227 323.996 691.227 329.288C691.227 334.58 687.375 338.54 682.155 338.54ZM682.155 335.372C685.611 335.372 687.987 332.888 687.987 329.288C687.987 325.688 685.611 323.204 682.155 323.204C678.699 323.204 676.323 325.688 676.323 329.288C676.323 332.888 678.699 335.372 682.155 335.372ZM696.999 338L695.199 320.576H698.439L699.807 333.608C699.915 334.652 700.347 335.156 701.247 335.156C702.219 335.156 702.507 334.652 702.615 333.608L703.983 320.576H712.227L713.739 333.608C713.847 334.616 714.207 335.156 715.179 335.156C716.151 335.156 716.511 334.652 716.619 333.608L717.987 320.576H721.119L719.355 338H711.039L709.527 325.076C709.419 324.032 709.059 323.42 708.087 323.42C707.151 323.42 706.683 324.032 706.575 325.076L705.207 338H696.999ZM734.237 338C728.729 338 725.093 334.508 725.093 329.288C725.093 324.068 728.729 320.576 734.237 320.576H741.293V330.764H731.609V327.632H736.469C737.729 327.632 738.593 326.948 738.593 325.652C738.593 324.392 737.729 323.708 736.469 323.708H734.129C730.385 323.708 728.333 325.76 728.333 329.216C728.333 332.744 730.421 334.832 734.129 334.832H741.293V338H734.237ZM747.766 338V320.576H757.306L759.574 327.848H755.65V325.868C755.65 324.248 754.642 323.384 753.346 323.384C751.978 323.384 751.006 324.248 751.006 325.868V338H747.766ZM772.501 338C766.993 338 763.357 334.508 763.357 329.288C763.357 324.068 766.993 320.576 772.501 320.576H779.557V330.764H769.873V327.632H774.733C775.993 327.632 776.857 326.948 776.857 325.652C776.857 324.392 775.993 323.708 774.733 323.708H772.393C768.649 323.708 766.597 325.76 766.597 329.216C766.597 332.744 768.685 334.832 772.393 334.832H779.557V338H772.501ZM794.31 338C788.802 338 784.95 334.652 784.95 329.288C784.95 323.924 788.802 320.576 794.31 320.576H798.306V312.62H801.546V338H794.31ZM796.146 334.832C797.478 334.832 798.306 334.004 798.306 332.672V325.904C798.306 324.572 797.478 323.744 796.146 323.744H794.238C790.494 323.744 788.19 325.76 788.19 329.288C788.19 332.816 790.494 334.832 794.238 334.832H796.146ZM819.521 338V312.62H832.913C836.261 312.62 838.277 314.78 838.277 318.092C838.277 321.404 836.261 323.564 832.913 323.564H830.465C829.493 323.564 828.809 324.248 828.809 325.22C828.809 326.192 829.493 326.876 830.465 326.876H832.877C836.153 326.876 838.277 329.036 838.277 332.42C838.277 335.84 836.153 338 832.877 338H819.521ZM822.761 332.672C822.761 334.004 823.589 334.832 824.921 334.832H832.697C834.065 334.832 835.037 333.968 835.037 332.348C835.037 330.836 834.029 329.972 832.697 329.972H826.145V320.468H832.697C834.029 320.468 835.037 319.604 835.037 318.128C835.037 316.616 834.029 315.788 832.697 315.788H824.921C823.589 315.788 822.761 316.616 822.761 317.948V332.672ZM842.669 343.76V340.592H848.573C850.085 340.592 851.021 339.764 851.021 338.396C851.021 337.028 850.085 336.2 848.573 336.2H846.341L841.877 320.576H845.225L848.321 331.664C848.681 332.96 849.293 333.5 850.301 333.5C851.417 333.5 852.029 332.96 852.353 331.664L855.269 320.576H858.545L852.425 343.76H842.669Z" fill="white" fill-opacity="0.61"/>
<path d="M971.74 305.409H957.987V338.557H971.74V305.409Z" fill="#F7F7F7"/>
<path d="M922.842 297.123H936.3V310.465C936.3 312.228 937.356 313.346 939.06 313.346C940.765 313.346 941.823 312.23 941.823 310.465V305.411H955.281V319.223H935.711C934.007 319.223 932.83 320.341 932.83 321.925C932.83 323.509 934.007 324.629 935.711 324.629H955.281V338.557H941.823V333.384C941.823 331.623 940.766 330.505 939.06 330.505C937.354 330.505 936.3 331.621 936.3 333.384V338.557H922.842V297.123Z" fill="#F7F7F7"/>
<path d="M890.107 335.765H908.443C910.147 335.765 911.324 334.649 911.324 333.061C911.324 331.473 910.147 330.3 908.443 330.3L890.107 330.18V305.409H920.138V316.459H901.804C900.1 316.459 898.923 317.574 898.923 319.162C898.923 320.75 900.1 321.923 901.804 321.923H920.138V346.841H890.107V335.765Z" fill="#F7F7F7"/>
<path d="M990.546 327.272C993.543 327.272 995.835 324.979 995.835 321.982C995.835 318.985 993.543 316.693 990.546 316.693C987.549 316.693 985.256 318.985 985.256 321.982C985.256 324.979 987.549 327.272 990.546 327.272ZM991.134 305.409C1001.24 305.409 1008.18 312.167 1008.18 321.982C1008.18 331.798 1001.24 338.555 991.134 338.555H987.665V346.841H974.441V305.409H991.132H991.134Z" fill="#F7F7F7"/>
<path d="M981.653 294.254C981.653 298.983 977.822 302.814 973.093 302.814C968.365 302.814 964.533 298.983 964.533 294.254C964.533 289.525 968.367 285.694 973.093 285.694C977.82 285.694 981.653 289.525 981.653 294.254Z" fill="#FFC900"/>
<path d="M169.929 89.144C163.357 95.7324 163.357 106.399 169.929 112.987C175.674 118.746 184.536 119.463 191.057 115.159C191.956 114.565 193.152 114.709 193.909 115.467L278.062 199.824C278.879 200.644 278.297 202.048 277.142 202.048H272.062V205.214H285.667V191.576H282.508V196.658C282.508 197.816 281.108 198.4 280.29 197.581L196.147 113.233C195.391 112.465 195.248 111.266 195.841 110.364C200.174 103.817 199.459 94.9127 193.704 89.144C187.142 82.5659 176.491 82.5659 169.929 89.144Z" fill="white"/>
<path d="M166.291 170.999C162.733 179.605 166.812 189.462 175.388 193.028C182.89 196.143 191.353 193.407 195.738 186.931C196.342 186.04 197.497 185.712 198.498 186.122L263.394 213.049C264.467 213.49 264.467 215.017 263.394 215.457L258.702 217.404L259.909 220.324L272.481 215.099L267.278 202.506L264.365 203.715L266.307 208.408C266.747 209.484 265.684 210.559 264.61 210.109L199.725 183.181C198.733 182.772 198.14 181.716 198.345 180.651C199.847 172.945 195.79 164.984 188.267 161.859C179.691 158.293 169.848 162.381 166.291 170.978" fill="white"/>
<path d="M165.002 230.1C165.002 220.786 172.536 213.244 181.817 213.244C189.933 213.244 196.709 219.013 198.283 226.688C198.498 227.743 199.449 228.491 200.522 228.491H256.392C257.547 228.491 258.13 227.087 257.312 226.267L253.724 222.671L255.953 220.427L265.571 230.069L255.953 239.711L253.724 237.477L257.312 233.88C258.13 233.061 257.547 231.657 256.392 231.657H200.532C199.459 231.657 198.508 232.405 198.294 233.471C196.74 241.166 189.953 246.965 181.817 246.965C172.525 246.965 165.002 239.413 165.002 230.11" fill="white"/>
<path d="M169.929 371.057C163.357 364.478 163.357 353.802 169.929 347.213C175.674 341.455 184.536 340.738 191.057 345.041C191.956 345.635 193.152 345.492 193.909 344.734L278.062 260.376C278.879 259.556 278.297 258.153 277.142 258.153H272.062V254.987H285.667V268.624H282.508V263.542C282.508 262.384 281.108 261.8 280.29 262.62L196.147 346.967C195.391 347.736 195.248 348.935 195.841 349.836C200.174 356.384 199.459 365.288 193.704 371.057C187.132 377.645 176.491 377.645 169.919 371.057" fill="white"/>
<path d="M166.291 289.19C162.733 280.594 166.812 270.726 175.388 267.161C182.89 264.046 191.353 266.782 195.738 273.267C196.342 274.159 197.497 274.487 198.498 274.077L263.394 247.15C264.467 246.709 264.467 245.182 263.394 244.742L258.702 242.795L259.909 239.865L272.481 245.09L267.278 257.693L264.365 256.484L266.307 251.791C266.747 250.715 265.684 249.639 264.61 250.09L199.725 277.018C198.733 277.427 198.14 278.483 198.345 279.548C199.847 287.254 195.79 295.215 188.267 298.34C179.691 301.906 169.848 297.818 166.291 289.221" fill="white"/>
<path d="M355.454 220.457L355.449 220.462L365.062 230.099L355.444 239.741L353.216 237.507L356.803 233.911C357.621 233.091 357.038 231.687 355.883 231.687H339.151V228.521H355.883C357.038 228.521 357.621 227.117 356.803 226.298L353.216 222.701L355.449 220.462L355.444 220.457H355.454Z" fill="white"/>
<path d="M310.34 228.52H360.389V231.686H310.35C309.277 231.686 308.326 232.434 308.112 233.489C306.558 241.184 299.771 246.984 291.635 246.984C282.354 246.984 274.821 239.432 274.821 230.129C274.821 220.825 282.344 213.273 291.635 213.273C299.751 213.273 306.527 219.042 308.102 226.717C308.316 227.772 309.267 228.52 310.34 228.52Z" fill="white"/>
<path d="M502.257 342.441C511.497 342.441 519 349.952 519 359.225C519 368.497 511.507 376.008 502.257 376.008C493.006 376.008 485.514 368.497 485.514 359.225C485.514 349.952 493.006 342.441 502.257 342.441Z" fill="white"/>
<path d="M502.257 265.212C511.497 265.212 519 272.723 519 281.996C519 291.268 511.507 298.779 502.257 298.779C493.006 298.779 485.514 291.268 485.514 281.996C485.514 272.723 493.006 265.212 502.257 265.212Z" fill="white"/>
<path d="M502.257 213.316C511.497 213.316 519 220.826 519 230.099C519 239.372 511.507 246.883 502.257 246.883C493.006 246.883 485.514 239.372 485.514 230.099C485.514 220.826 493.006 213.316 502.257 213.316Z" fill="white"/>
<path d="M502.257 161.428C511.497 161.428 519 168.939 519 178.211C519 187.484 511.507 194.995 502.257 194.995C493.006 194.995 485.514 187.484 485.514 178.211C485.514 168.939 493.006 161.428 502.257 161.428Z" fill="white"/>
<path d="M502.257 84.1929C511.497 84.1929 519 91.7034 519 100.976C519 110.249 511.507 117.76 502.257 117.76C493.007 117.76 485.514 110.249 485.514 100.976C485.514 91.7034 493.007 84.1929 502.257 84.1929Z" fill="white"/>
<path d="M472.196 127.145H477.266C478.421 127.145 479.004 128.549 478.186 129.369L396.067 211.688C394.748 213.009 392.96 213.716 391.089 213.716H391.058C381.818 213.716 374.316 221.227 374.316 230.5C374.316 239.773 381.808 247.283 391.058 247.283H391.089C392.949 247.283 394.748 247.99 396.067 249.302L478.186 331.62C479.004 332.44 478.421 333.844 477.266 333.844H472.196V337.01H485.801V323.372H482.642V328.464C482.642 329.622 481.242 330.206 480.424 329.387L399.634 248.4C398.551 247.314 398.745 245.49 400.043 244.66C400.053 244.66 400.064 244.65 400.084 244.64C400.748 244.219 401.576 244.138 402.302 244.445L468.823 272.069C469.896 272.509 469.896 274.036 468.823 274.477L464.142 276.424L465.348 279.354L477.92 274.139L472.707 261.536L469.794 262.745L471.736 267.448C472.176 268.524 471.113 269.6 470.039 269.149L407.382 243.133C405.593 242.385 404.847 240.254 405.777 238.553C406.452 237.313 406.973 235.981 407.321 234.578C407.679 233.123 408.977 232.098 410.479 232.098H465.941C467.096 232.098 467.678 233.502 466.861 234.322L463.273 237.918L465.501 240.162L475.119 230.52L465.501 220.878L463.273 223.112L466.861 226.709C467.678 227.528 467.096 228.932 465.941 228.932H410.479C408.987 228.932 407.689 227.907 407.321 226.452C406.973 225.049 406.452 223.717 405.777 222.477C404.847 220.776 405.593 218.635 407.382 217.897L470.039 191.881C471.113 191.441 472.186 192.506 471.736 193.582L469.794 198.285L472.707 199.494L477.92 186.891L465.348 181.676L464.142 184.607L468.823 186.553C469.896 186.994 469.896 188.521 468.823 188.961L402.302 216.575C401.576 216.882 400.748 216.8 400.084 216.38C400.074 216.38 400.064 216.37 400.043 216.36C398.745 215.53 398.551 213.716 399.634 212.62L480.424 131.633C481.242 130.814 482.642 131.398 482.642 132.555V137.648H485.801V124.01H472.196V127.176V127.145Z" fill="white"/>
</svg>
